<svg width="839" height="239" viewBox="0 0 839 239" fill="none" xmlns="http://www.w3.org/2000/svg">
<rect width="839" height="239" fill="white"/>
<g filter="url(#filter0_d_677_7858)">
<path d="M164.746 29.7373V168.983H25.5V29.7373H164.746Z" fill="black" stroke="white" stroke-width="3"/>
<path fill-rule="evenodd" clip-rule="evenodd" d="M89.2657 93.5029H42.4083V46.6455H89.2657V93.5029ZM77.5513 58.3599H54.1226V81.7886H77.5513V58.3599Z" fill="white"/>
<path fill-rule="evenodd" clip-rule="evenodd" d="M147.837 93.5029H100.98V46.6455H112.694V81.7886H136.123V46.6455H147.837V93.5029Z" fill="white"/>
<path fill-rule="evenodd" clip-rule="evenodd" d="M124.409 152.075H112.694V116.932H54.1226V152.075H42.4083V105.217H124.409V152.075Z" fill="white"/>
<path fill-rule="evenodd" clip-rule="evenodd" d="M77.5513 105.217H89.2656V152.075H77.5513V105.217Z" fill="white"/>
<path fill-rule="evenodd" clip-rule="evenodd" d="M136.123 105.217H147.837V152.075H136.123V105.217Z" fill="white"/>
</g>
<path d="M139.136 205.763V190.487H141.98V205.763H139.136ZM139.136 188.327V185.483H141.98V188.327H139.136Z" fill="black"/>
<path d="M124.273 205.763C123.64 205.763 123.061 205.605 122.534 205.289C122.025 204.973 121.612 204.56 121.296 204.051C120.998 203.542 120.849 202.971 120.849 202.339V196.703H133.517V193.99C133.517 193.814 133.456 193.665 133.333 193.542C133.21 193.402 133.061 193.332 132.885 193.332H120.849V190.487H132.964C133.596 190.487 134.167 190.645 134.676 190.961C135.203 191.26 135.615 191.672 135.914 192.199C136.23 192.726 136.388 193.296 136.388 193.911V205.763H124.273ZM124.352 202.918H133.517V199.363H123.693V202.26C123.693 202.436 123.755 202.594 123.878 202.734C124.018 202.857 124.176 202.918 124.352 202.918Z" fill="black"/>
<path d="M115.089 205.763V202.918H117.933V205.763H115.089Z" fill="black"/>
<path d="M109.352 205.763V190.487H112.196V205.763H109.352ZM109.352 188.327V185.483H112.196V188.327H109.352Z" fill="black"/>
<path d="M83.6584 205.763V190.487H103.175C103.824 190.487 104.404 190.645 104.913 190.961C105.422 191.277 105.826 191.69 106.124 192.199C106.44 192.708 106.598 193.279 106.598 193.911V205.763H103.78V193.99C103.78 193.814 103.71 193.665 103.57 193.542C103.447 193.402 103.297 193.332 103.122 193.332H97.2486C97.0555 193.332 96.8974 193.402 96.7745 193.542C96.6516 193.665 96.5902 193.814 96.5902 193.99V205.763H93.7194V193.99C93.7194 193.814 93.6491 193.665 93.5087 193.542C93.3858 193.402 93.2365 193.332 93.0609 193.332H87.1613C86.9857 193.332 86.8365 193.402 86.7136 193.542C86.5907 193.665 86.5292 193.814 86.5292 193.99V205.763H83.6584Z" fill="black"/>
<path d="M69.3346 205.763C68.7025 205.763 68.1231 205.605 67.5964 205.289C67.0872 204.973 66.6746 204.56 66.3585 204.051C66.06 203.542 65.9108 202.971 65.9108 202.339V190.487H68.7552V202.26C68.7552 202.436 68.8167 202.594 68.9396 202.734C69.0801 202.857 69.2381 202.918 69.4137 202.918H77.947C78.1226 202.918 78.2719 202.857 78.3948 202.734C78.5352 202.594 78.6055 202.436 78.6055 202.26V190.487H81.4499V202.339C81.4499 202.971 81.2919 203.542 80.9758 204.051C80.6774 204.56 80.2647 204.973 79.738 205.289C79.2288 205.605 78.6581 205.763 78.026 205.763H69.3346Z" fill="black"/>
<path d="M51.6893 205.763C51.0572 205.763 50.4866 205.605 49.9774 205.289C49.4682 204.973 49.0556 204.56 48.7395 204.051C48.4235 203.542 48.2654 202.971 48.2654 202.339V193.911C48.2654 193.279 48.4235 192.708 48.7395 192.199C49.0556 191.69 49.4682 191.277 49.9774 190.961C50.4866 190.645 51.0572 190.487 51.6893 190.487H60.3807C61.0128 190.487 61.5835 190.645 62.0927 190.961C62.6194 191.26 63.032 191.672 63.3305 192.199C63.6466 192.726 63.8046 193.296 63.8046 193.911V202.339C63.8046 202.971 63.6466 203.542 63.3305 204.051C63.032 204.56 62.6194 204.973 62.0927 205.289C61.5835 205.605 61.0128 205.763 60.3807 205.763H51.6893ZM51.7683 202.918H60.3017C60.4773 202.918 60.6265 202.857 60.7494 202.734C60.8723 202.594 60.9338 202.436 60.9338 202.26V193.99C60.9338 193.814 60.8723 193.665 60.7494 193.542C60.6265 193.402 60.4773 193.332 60.3017 193.332H51.7683C51.5928 193.332 51.4347 193.402 51.2943 193.542C51.1714 193.665 51.1099 193.814 51.1099 193.99V202.26C51.1099 202.436 51.1714 202.594 51.2943 202.734C51.4347 202.857 51.5928 202.918 51.7683 202.918Z" fill="black"/>
<path d="M676.249 136.997V95.2373H683.963V112.231H693.765L708.033 95.2373H716.385V97.4413L700.725 116.117L716.443 134.793V136.997H708.033L693.765 120.003H683.963V136.997H676.249Z" fill="black"/>
<path d="M636.562 136.997C635.092 136.997 633.739 136.63 632.502 135.895C631.303 135.161 630.336 134.194 629.602 132.995C628.867 131.758 628.5 130.405 628.5 128.935V103.299C628.5 101.83 628.867 100.496 629.602 99.2973C630.336 98.06 631.303 97.074 632.502 96.3393C633.739 95.6046 635.092 95.2373 636.562 95.2373H670.144V102.951H638.186C637.567 102.951 637.064 103.125 636.678 103.473C636.33 103.821 636.156 104.324 636.156 104.981V127.253C636.156 127.872 636.33 128.375 636.678 128.761C637.064 129.109 637.567 129.283 638.186 129.283H670.144V136.997H636.562Z" fill="black"/>
<path d="M580.131 136.997V103.299C580.131 101.83 580.499 100.496 581.233 99.2973C581.968 98.06 582.935 97.074 584.133 96.3393C585.371 95.6046 586.724 95.2373 588.193 95.2373H613.771C615.241 95.2373 616.594 95.6046 617.831 96.3393C619.069 97.074 620.055 98.06 620.789 99.2973C621.524 100.496 621.891 101.83 621.891 103.299V136.997H614.177V122.961H587.787V136.997H580.131ZM587.787 115.305H614.177V103.647C614.177 103.454 614.1 103.299 613.945 103.183C613.791 103.029 613.617 102.951 613.423 102.951H588.483C588.29 102.951 588.116 103.029 587.961 103.183C587.845 103.299 587.787 103.454 587.787 103.647V115.305Z" fill="black"/>
<path d="M550.97 136.997V102.951H533.918V95.2373H575.678V102.951H558.684V136.997H550.97Z" fill="black"/>
<path d="M495.976 136.997C494.506 136.997 493.153 136.63 491.916 135.895C490.717 135.161 489.75 134.194 489.016 132.995C488.281 131.758 487.914 130.405 487.914 128.935V125.745H495.57V128.587C495.57 128.781 495.628 128.955 495.744 129.109C495.898 129.225 496.072 129.283 496.266 129.283H521.264C521.457 129.283 521.612 129.225 521.728 129.109C521.882 128.955 521.96 128.781 521.96 128.587V120.641C521.96 120.448 521.882 120.293 521.728 120.177C521.612 120.061 521.457 120.003 521.264 120.003H495.976C494.506 120.003 493.153 119.636 491.916 118.901C490.717 118.167 489.75 117.2 489.016 116.001C488.281 114.764 487.914 113.391 487.914 111.883V103.299C487.914 101.83 488.281 100.496 489.016 99.2973C489.75 98.06 490.717 97.074 491.916 96.3393C493.153 95.6046 494.506 95.2373 495.976 95.2373H521.612C523.081 95.2373 524.415 95.6046 525.614 96.3393C526.851 97.074 527.837 98.06 528.572 99.2973C529.306 100.496 529.674 101.83 529.674 103.299V106.489H521.96V103.647C521.96 103.454 521.882 103.299 521.728 103.183C521.612 103.029 521.457 102.951 521.264 102.951H496.266C496.072 102.951 495.898 103.029 495.744 103.183C495.628 103.299 495.57 103.454 495.57 103.647V111.593C495.57 111.787 495.628 111.941 495.744 112.057C495.898 112.173 496.072 112.231 496.266 112.231H521.612C523.081 112.231 524.415 112.599 525.614 113.333C526.851 114.068 527.837 115.054 528.572 116.291C529.306 117.49 529.674 118.843 529.674 120.351V128.935C529.674 130.405 529.306 131.758 528.572 132.995C527.837 134.194 526.851 135.161 525.614 135.895C524.415 136.63 523.081 136.997 521.612 136.997H495.976Z" fill="black"/>
<path d="M426.069 136.997V95.2373H464.523V102.951H433.783V112.231H458.491V120.003H433.783V129.283H464.523V136.997H426.069Z" fill="black"/>
<path d="M386.323 136.997C384.854 136.997 383.501 136.63 382.263 135.895C381.065 135.161 380.098 134.194 379.363 132.995C378.629 131.758 378.261 130.405 378.261 128.935V103.299C378.261 101.83 378.629 100.496 379.363 99.2973C380.098 98.06 381.065 97.074 382.263 96.3393C383.501 95.6046 384.854 95.2373 386.323 95.2373H419.905V102.951H387.947C387.329 102.951 386.826 103.125 386.439 103.473C386.091 103.821 385.917 104.324 385.917 104.981V127.253C385.917 127.872 386.091 128.375 386.439 128.761C386.826 129.109 387.329 129.283 387.947 129.283H419.905V136.997H386.323Z" fill="black"/>
<path d="M363.692 136.997L351.106 121.975H361.14L372.044 134.851V136.997H363.692ZM330.4 136.997V95.2954H364.04C365.509 95.2954 366.863 95.6627 368.1 96.3974C369.337 97.1321 370.323 98.1181 371.058 99.3554C371.793 100.554 372.16 101.888 372.16 103.357V114.609C372.16 116.079 371.793 117.432 371.058 118.669C370.323 119.907 369.337 120.893 368.1 121.627C366.863 122.323 365.509 122.671 364.04 122.671L338.056 122.729V136.997H330.4ZM338.752 114.957H363.692C363.885 114.957 364.059 114.899 364.214 114.783C364.369 114.667 364.446 114.513 364.446 114.319V103.647C364.446 103.454 364.369 103.299 364.214 103.183C364.059 103.029 363.885 102.951 363.692 102.951H338.752C338.559 102.951 338.385 103.029 338.23 103.183C338.114 103.299 338.056 103.454 338.056 103.647V114.319C338.056 114.513 338.114 114.667 338.23 114.783C338.385 114.899 338.559 114.957 338.752 114.957Z" fill="black"/>
<path d="M290.315 136.997C288.846 136.997 287.492 136.63 286.255 135.895C285.056 135.161 284.09 134.194 283.355 132.995C282.62 131.758 282.253 130.405 282.253 128.935V95.2373H289.909V128.587C289.909 128.781 289.967 128.955 290.083 129.109C290.238 129.225 290.412 129.283 290.605 129.283H315.545C315.738 129.283 315.912 129.225 316.067 129.109C316.222 128.955 316.299 128.781 316.299 128.587V95.2373H324.013V128.935C324.013 130.405 323.646 131.758 322.911 132.995C322.176 134.194 321.19 135.161 319.953 135.895C318.754 136.63 317.42 136.997 315.951 136.997H290.315Z" fill="black"/>
<path d="M242.284 136.997C240.814 136.997 239.461 136.63 238.224 135.895C237.025 135.161 236.058 134.194 235.324 132.995C234.589 131.758 234.222 130.405 234.222 128.935V103.299C234.222 101.83 234.589 100.496 235.324 99.2973C236.058 98.06 237.025 97.074 238.224 96.3393C239.461 95.6046 240.814 95.2373 242.284 95.2373H267.92C269.389 95.2373 270.723 95.6046 271.922 96.3393C273.159 97.074 274.145 98.06 274.88 99.2973C275.614 100.496 275.982 101.83 275.982 103.299V128.935C275.982 130.405 275.614 131.758 274.88 132.995C274.145 134.194 273.159 135.161 271.922 135.895C270.723 136.63 269.389 136.997 267.92 136.997H242.284ZM242.574 129.283H267.514C267.707 129.283 267.881 129.225 268.036 129.109C268.19 128.955 268.268 128.781 268.268 128.587V103.647C268.268 103.454 268.19 103.299 268.036 103.183C267.881 103.029 267.707 102.951 267.514 102.951H242.574C242.38 102.951 242.206 103.029 242.052 103.183C241.936 103.299 241.878 103.454 241.878 103.647V128.587C241.878 128.781 241.936 128.955 242.052 129.109C242.206 129.225 242.38 129.283 242.574 129.283Z" fill="black"/>
<path d="M194.308 136.997C192.838 136.997 191.485 136.63 190.248 135.895C189.049 135.161 188.082 134.194 187.348 132.995C186.613 131.758 186.246 130.405 186.246 128.935V125.745H193.902V128.587C193.902 128.781 193.96 128.955 194.076 129.109C194.23 129.225 194.404 129.283 194.598 129.283H219.596C219.789 129.283 219.944 129.225 220.06 129.109C220.214 128.955 220.292 128.781 220.292 128.587V120.641C220.292 120.448 220.214 120.293 220.06 120.177C219.944 120.061 219.789 120.003 219.596 120.003H194.308C192.838 120.003 191.485 119.636 190.248 118.901C189.049 118.167 188.082 117.2 187.348 116.001C186.613 114.764 186.246 113.391 186.246 111.883V103.299C186.246 101.83 186.613 100.496 187.348 99.2973C188.082 98.06 189.049 97.074 190.248 96.3393C191.485 95.6046 192.838 95.2373 194.308 95.2373H219.944C221.413 95.2373 222.747 95.6046 223.946 96.3393C225.183 97.074 226.169 98.06 226.904 99.2973C227.638 100.496 228.006 101.83 228.006 103.299V106.489H220.292V103.647C220.292 103.454 220.214 103.299 220.06 103.183C219.944 103.029 219.789 102.951 219.596 102.951H194.598C194.404 102.951 194.23 103.029 194.076 103.183C193.96 103.299 193.902 103.454 193.902 103.647V111.593C193.902 111.787 193.96 111.941 194.076 112.057C194.23 112.173 194.404 112.231 194.598 112.231H219.944C221.413 112.231 222.747 112.599 223.946 113.333C225.183 114.068 226.169 115.054 226.904 116.291C227.638 117.49 228.006 118.843 228.006 120.351V128.935C228.006 130.405 227.638 131.758 226.904 132.995C226.169 134.194 225.183 135.161 223.946 135.895C222.747 136.63 221.413 136.997 219.944 136.997H194.308Z" fill="black"/>
<path d="M504.74 74.9973V33.2373H513.15L538.786 63.7453V33.2373H546.5V74.9973H538.09L512.396 44.4313V74.9973H504.74Z" fill="black"/>
<path d="M460.45 74.9973V33.2373H498.904V40.9513H468.164V50.2313H492.872V58.0033H468.164V67.2833H498.904V74.9973H460.45Z" fill="black"/>
<path d="M414.455 74.9974V33.2954H448.095C449.564 33.2954 450.917 33.6627 452.155 34.3974C453.392 35.1321 454.378 36.1181 455.113 37.3554C455.847 38.5541 456.215 39.8881 456.215 41.3574V52.6094C456.215 54.0787 455.847 55.4321 455.113 56.6694C454.378 57.9067 453.392 58.8927 452.155 59.6274C450.917 60.3234 449.564 60.6714 448.095 60.6714L422.111 60.7294V74.9974H414.455ZM422.807 52.9574H447.747C447.94 52.9574 448.114 52.8994 448.269 52.7834C448.423 52.6674 448.501 52.5127 448.501 52.3194V41.6474C448.501 41.4541 448.423 41.2994 448.269 41.1834C448.114 41.0287 447.94 40.9514 447.747 40.9514H422.807C422.613 40.9514 422.439 41.0287 422.285 41.1834C422.169 41.2994 422.111 41.4541 422.111 41.6474V52.3194C422.111 52.5127 422.169 52.6674 422.285 52.7834C422.439 52.8994 422.613 52.9574 422.807 52.9574Z" fill="black"/>
<path d="M374.37 74.9973C372.9 74.9973 371.547 74.63 370.31 73.8953C369.111 73.1606 368.144 72.194 367.41 70.9953C366.675 69.758 366.308 68.4046 366.308 66.9353V41.2993C366.308 39.83 366.675 38.496 367.41 37.2973C368.144 36.06 369.111 35.074 370.31 34.3393C371.547 33.6046 372.9 33.2373 374.37 33.2373H400.006C401.475 33.2373 402.809 33.6046 404.008 34.3393C405.245 35.074 406.231 36.06 406.966 37.2973C407.7 38.496 408.068 39.83 408.068 41.2993V66.9353C408.068 68.4046 407.7 69.758 406.966 70.9953C406.231 72.194 405.245 73.1606 404.008 73.8953C402.809 74.63 401.475 74.9973 400.006 74.9973H374.37ZM374.66 67.2833H399.6C399.793 67.2833 399.967 67.2253 400.122 67.1093C400.276 66.9546 400.354 66.7806 400.354 66.5873V41.6473C400.354 41.454 400.276 41.2993 400.122 41.1833C399.967 41.0286 399.793 40.9513 399.6 40.9513H374.66C374.466 40.9513 374.292 41.0286 374.138 41.1833C374.022 41.2993 373.964 41.454 373.964 41.6473V66.5873C373.964 66.7806 374.022 66.9546 374.138 67.1093C374.292 67.2253 374.466 67.2833 374.66 67.2833Z" fill="black"/>
<path d="M335.479 74.9973V33.2373H343.077V74.9973H335.479Z" fill="black"/>
<path d="M282.482 74.9973V33.2373H290.892L306.03 51.2753L321.11 33.2373H329.578V74.9973H321.864V44.3733L306.03 63.2233L290.138 44.4313V74.9973H282.482Z" fill="black"/>
<path d="M242.397 74.9973C240.928 74.9973 239.574 74.63 238.337 73.8953C237.138 73.1606 236.172 72.194 235.437 70.9953C234.702 69.758 234.335 68.4046 234.335 66.9353V33.2373H241.991V66.5873C241.991 66.7806 242.049 66.9546 242.165 67.1093C242.32 67.2253 242.494 67.2833 242.687 67.2833H267.627C267.82 67.2833 267.994 67.2253 268.149 67.1093C268.304 66.9546 268.381 66.7806 268.381 66.5873V33.2373H276.095V66.9353C276.095 68.4046 275.728 69.758 274.993 70.9953C274.258 72.194 273.272 73.1606 272.035 73.8953C270.836 74.63 269.502 74.9973 268.033 74.9973H242.397Z" fill="black"/>
<path d="M194.366 74.9973C192.896 74.9973 191.543 74.63 190.306 73.8953C189.107 73.1606 188.14 72.194 187.406 70.9953C186.671 69.758 186.304 68.4046 186.304 66.9353V41.2993C186.304 39.83 186.671 38.496 187.406 37.2973C188.14 36.06 189.107 35.074 190.306 34.3393C191.543 33.6046 192.896 33.2373 194.366 33.2373H220.002C221.471 33.2373 222.805 33.6046 224.004 34.3393C225.241 35.074 226.227 36.06 226.962 37.2973C227.696 38.496 228.064 39.83 228.064 41.2993V66.9353C228.064 68.4046 227.696 69.758 226.962 70.9953C226.227 72.194 225.241 73.1606 224.004 73.8953C222.805 74.63 221.471 74.9973 220.002 74.9973H194.366ZM194.656 67.2833H219.596C219.789 67.2833 219.963 67.2253 220.118 67.1093C220.272 66.9546 220.35 66.7806 220.35 66.5873V41.6473C220.35 41.454 220.272 41.2993 220.118 41.1833C219.963 41.0286 219.789 40.9513 219.596 40.9513H194.656C194.462 40.9513 194.288 41.0286 194.134 41.1833C194.018 41.2993 193.96 41.454 193.96 41.6473V66.5873C193.96 66.7806 194.018 66.9546 194.134 67.1093C194.288 67.2253 194.462 67.2833 194.656 67.2833Z" fill="black"/>
<path d="M194.506 186.763H187.966C187.686 186.763 187.546 186.623 187.546 186.343V174.323C187.546 174.043 187.686 173.903 187.966 173.903H194.506C194.772 173.903 194.906 174.043 194.906 174.323V175.683C194.906 175.963 194.772 176.103 194.506 176.103H190.326C190.166 176.103 190.086 176.176 190.086 176.323V178.923C190.086 179.069 190.166 179.143 190.326 179.143H193.746C194.026 179.143 194.166 179.283 194.166 179.563V180.923C194.166 181.203 194.026 181.343 193.746 181.343H190.326C190.166 181.343 190.086 181.416 190.086 181.563V184.343C190.086 184.489 190.166 184.563 190.326 184.563H194.506C194.772 184.563 194.906 184.703 194.906 184.983V186.343C194.906 186.623 194.772 186.763 194.506 186.763ZM199.196 186.763H197.536C197.256 186.763 197.116 186.623 197.116 186.343V174.323C197.116 174.043 197.256 173.903 197.536 173.903H199.036C199.316 173.903 199.503 173.996 199.596 174.183L203.636 181.763H203.716V174.323C203.716 174.043 203.856 173.903 204.136 173.903H205.796C206.076 173.903 206.216 174.043 206.216 174.323V186.343C206.216 186.623 206.076 186.763 205.796 186.763H204.336C204.043 186.763 203.829 186.629 203.696 186.363L199.696 178.923H199.616V186.343C199.616 186.623 199.476 186.763 199.196 186.763ZM211.575 184.563H213.755C214.182 184.563 214.482 184.476 214.655 184.303C214.842 184.116 214.935 183.809 214.935 183.383V177.283C214.935 176.856 214.842 176.556 214.655 176.383C214.482 176.196 214.182 176.103 213.755 176.103H211.575C211.429 176.103 211.355 176.176 211.355 176.323V184.343C211.355 184.489 211.429 184.563 211.575 184.563ZM208.815 186.343V174.323C208.815 174.043 208.955 173.903 209.235 173.903H214.175C215.215 173.903 216.022 174.189 216.595 174.763C217.182 175.323 217.475 176.123 217.475 177.163V183.503C217.475 184.543 217.182 185.349 216.595 185.923C216.022 186.483 215.215 186.763 214.175 186.763H209.235C208.955 186.763 208.815 186.623 208.815 186.343ZM223.59 181.403H219.79C219.51 181.403 219.37 181.263 219.37 180.983V179.803C219.37 179.509 219.51 179.363 219.79 179.363H223.59C223.87 179.363 224.01 179.509 224.01 179.803V180.983C224.01 181.263 223.87 181.403 223.59 181.403ZM230.08 186.763H228.4C228.107 186.763 227.96 186.623 227.96 186.343V176.323C227.96 176.176 227.887 176.103 227.74 176.103H225.46C225.18 176.103 225.04 175.963 225.04 175.683V174.323C225.04 174.043 225.18 173.903 225.46 173.903H233.02C233.3 173.903 233.44 174.043 233.44 174.323V175.683C233.44 175.963 233.3 176.103 233.02 176.103H230.74C230.58 176.103 230.5 176.176 230.5 176.323V186.343C230.5 186.623 230.36 186.763 230.08 186.763ZM238.468 184.563H239.888C240.314 184.563 240.614 184.476 240.788 184.303C240.974 184.116 241.068 183.809 241.068 183.383V177.283C241.068 176.856 240.974 176.556 240.788 176.383C240.614 176.196 240.314 176.103 239.888 176.103H238.468C238.041 176.103 237.741 176.196 237.568 176.383C237.394 176.556 237.308 176.856 237.308 177.283V183.383C237.308 183.809 237.394 184.116 237.568 184.303C237.741 184.476 238.041 184.563 238.468 184.563ZM240.308 186.763H238.068C237.014 186.763 236.201 186.483 235.628 185.923C235.054 185.363 234.768 184.556 234.768 183.503V177.163C234.768 176.109 235.054 175.303 235.628 174.743C236.201 174.183 237.014 173.903 238.068 173.903H240.308C241.361 173.903 242.174 174.183 242.748 174.743C243.321 175.303 243.608 176.109 243.608 177.163V183.503C243.608 184.556 243.321 185.363 242.748 185.923C242.174 186.483 241.361 186.763 240.308 186.763ZM249.723 181.403H245.923C245.643 181.403 245.503 181.263 245.503 180.983V179.803C245.503 179.509 245.643 179.363 245.923 179.363H249.723C250.003 179.363 250.143 179.509 250.143 179.803V180.983C250.143 181.263 250.003 181.403 249.723 181.403ZM259.193 186.763H252.653C252.373 186.763 252.233 186.623 252.233 186.343V174.323C252.233 174.043 252.373 173.903 252.653 173.903H259.193C259.46 173.903 259.593 174.043 259.593 174.323V175.683C259.593 175.963 259.46 176.103 259.193 176.103H255.013C254.853 176.103 254.773 176.176 254.773 176.323V178.923C254.773 179.069 254.853 179.143 255.013 179.143H258.433C258.713 179.143 258.853 179.283 258.853 179.563V180.923C258.853 181.203 258.713 181.343 258.433 181.343H255.013C254.853 181.343 254.773 181.416 254.773 181.563V184.343C254.773 184.489 254.853 184.563 255.013 184.563H259.193C259.46 184.563 259.593 184.703 259.593 184.983V186.343C259.593 186.623 259.46 186.763 259.193 186.763ZM263.883 186.763H262.223C261.943 186.763 261.803 186.623 261.803 186.343V174.323C261.803 174.043 261.943 173.903 262.223 173.903H263.723C264.003 173.903 264.19 173.996 264.283 174.183L268.323 181.763H268.403V174.323C268.403 174.043 268.543 173.903 268.823 173.903H270.483C270.763 173.903 270.903 174.043 270.903 174.323V186.343C270.903 186.623 270.763 186.763 270.483 186.763H269.023C268.73 186.763 268.517 186.629 268.383 186.363L264.383 178.923H264.303V186.343C264.303 186.623 264.163 186.763 263.883 186.763ZM276.263 184.563H278.443C278.869 184.563 279.169 184.476 279.343 184.303C279.529 184.116 279.623 183.809 279.623 183.383V177.283C279.623 176.856 279.529 176.556 279.343 176.383C279.169 176.196 278.869 176.103 278.443 176.103H276.263C276.116 176.103 276.043 176.176 276.043 176.323V184.343C276.043 184.489 276.116 184.563 276.263 184.563ZM273.503 186.343V174.323C273.503 174.043 273.643 173.903 273.923 173.903H278.863C279.903 173.903 280.709 174.189 281.283 174.763C281.869 175.323 282.163 176.123 282.163 177.163V183.503C282.163 184.543 281.869 185.349 281.283 185.923C280.709 186.483 279.903 186.763 278.863 186.763H273.923C273.643 186.763 273.503 186.623 273.503 186.343ZM291.072 186.763H289.372C289.092 186.763 288.952 186.623 288.952 186.343V174.323C288.952 174.043 289.092 173.903 289.372 173.903H295.752C296.019 173.903 296.152 174.043 296.152 174.323V175.683C296.152 175.963 296.019 176.103 295.752 176.103H291.732C291.572 176.103 291.492 176.176 291.492 176.323V179.423C291.492 179.583 291.572 179.663 291.732 179.663H295.152C295.432 179.663 295.572 179.803 295.572 180.083V181.423C295.572 181.716 295.432 181.863 295.152 181.863H291.732C291.572 181.863 291.492 181.936 291.492 182.083V186.343C291.492 186.623 291.352 186.763 291.072 186.763ZM301.456 184.563H302.876C303.302 184.563 303.602 184.476 303.776 184.303C303.962 184.116 304.056 183.809 304.056 183.383V177.283C304.056 176.856 303.962 176.556 303.776 176.383C303.602 176.196 303.302 176.103 302.876 176.103H301.456C301.029 176.103 300.729 176.196 300.556 176.383C300.382 176.556 300.296 176.856 300.296 177.283V183.383C300.296 183.809 300.382 184.116 300.556 184.303C300.729 184.476 301.029 184.563 301.456 184.563ZM303.296 186.763H301.056C300.002 186.763 299.189 186.483 298.616 185.923C298.042 185.363 297.756 184.556 297.756 183.503V177.163C297.756 176.109 298.042 175.303 298.616 174.743C299.189 174.183 300.002 173.903 301.056 173.903H303.296C304.349 173.903 305.162 174.183 305.736 174.743C306.309 175.303 306.596 176.109 306.596 177.163V183.503C306.596 184.556 306.309 185.363 305.736 185.923C305.162 186.483 304.349 186.763 303.296 186.763ZM315.571 173.903H317.251C317.544 173.903 317.691 174.036 317.691 174.303V183.503C317.691 184.543 317.398 185.349 316.811 185.923C316.238 186.483 315.431 186.763 314.391 186.763H312.191C311.138 186.763 310.324 186.483 309.751 185.923C309.178 185.363 308.891 184.556 308.891 183.503V174.323C308.891 174.043 309.031 173.903 309.311 173.903H311.011C311.291 173.903 311.431 174.043 311.431 174.323V183.383C311.431 183.809 311.518 184.116 311.691 184.303C311.878 184.476 312.178 184.563 312.591 184.563H313.971C314.398 184.563 314.698 184.476 314.871 184.303C315.058 184.116 315.151 183.809 315.151 183.383V174.323C315.151 174.043 315.291 173.903 315.571 173.903ZM322.262 186.763H320.602C320.322 186.763 320.182 186.623 320.182 186.343V174.323C320.182 174.043 320.322 173.903 320.602 173.903H322.102C322.382 173.903 322.569 173.996 322.662 174.183L326.702 181.763H326.782V174.323C326.782 174.043 326.922 173.903 327.202 173.903H328.862C329.142 173.903 329.282 174.043 329.282 174.323V186.343C329.282 186.623 329.142 186.763 328.862 186.763H327.402C327.109 186.763 326.896 186.629 326.762 186.363L322.762 178.923H322.682V186.343C322.682 186.623 322.542 186.763 322.262 186.763ZM334.642 184.563H336.822C337.248 184.563 337.548 184.476 337.722 184.303C337.908 184.116 338.002 183.809 338.002 183.383V177.283C338.002 176.856 337.908 176.556 337.722 176.383C337.548 176.196 337.248 176.103 336.822 176.103H334.642C334.495 176.103 334.422 176.176 334.422 176.323V184.343C334.422 184.489 334.495 184.563 334.642 184.563ZM331.882 186.343V174.323C331.882 174.043 332.022 173.903 332.302 173.903H337.242C338.282 173.903 339.088 174.189 339.662 174.763C340.248 175.323 340.542 176.123 340.542 177.163V183.503C340.542 184.543 340.248 185.349 339.662 185.923C339.088 186.483 338.282 186.763 337.242 186.763H332.302C332.022 186.763 331.882 186.623 331.882 186.343ZM344.276 186.763H342.356C342.116 186.763 342.036 186.623 342.116 186.343L345.276 174.323C345.37 174.043 345.57 173.903 345.876 173.903H348.536C348.87 173.903 349.07 174.043 349.136 174.323L352.296 186.343C352.376 186.623 352.296 186.763 352.056 186.763H350.136C349.99 186.763 349.89 186.736 349.836 186.683C349.783 186.616 349.743 186.503 349.716 186.343L349.156 184.143H345.256L344.696 186.343C344.67 186.503 344.623 186.616 344.556 186.683C344.503 186.736 344.41 186.763 344.276 186.763ZM347.176 176.323L345.736 182.103H348.696L347.256 176.323H347.176ZM358.049 186.763H356.369C356.076 186.763 355.929 186.623 355.929 186.343V176.323C355.929 176.176 355.856 176.103 355.709 176.103H353.429C353.149 176.103 353.009 175.963 353.009 175.683V174.323C353.009 174.043 353.149 173.903 353.429 173.903H360.989C361.269 173.903 361.409 174.043 361.409 174.323V175.683C361.409 175.963 361.269 176.103 360.989 176.103H358.709C358.549 176.103 358.469 176.176 358.469 176.323V186.343C358.469 186.623 358.329 186.763 358.049 186.763ZM365.576 174.323V186.343C365.576 186.623 365.436 186.763 365.156 186.763H363.456C363.176 186.763 363.036 186.623 363.036 186.343V174.323C363.036 174.043 363.176 173.903 363.456 173.903H365.156C365.436 173.903 365.576 174.043 365.576 174.323ZM371.768 184.563H373.188C373.615 184.563 373.915 184.476 374.088 184.303C374.275 184.116 374.368 183.809 374.368 183.383V177.283C374.368 176.856 374.275 176.556 374.088 176.383C373.915 176.196 373.615 176.103 373.188 176.103H371.768C371.342 176.103 371.042 176.196 370.868 176.383C370.695 176.556 370.608 176.856 370.608 177.283V183.383C370.608 183.809 370.695 184.116 370.868 184.303C371.042 184.476 371.342 184.563 371.768 184.563ZM373.608 186.763H371.368C370.315 186.763 369.502 186.483 368.928 185.923C368.355 185.363 368.068 184.556 368.068 183.503V177.163C368.068 176.109 368.355 175.303 368.928 174.743C369.502 174.183 370.315 173.903 371.368 173.903H373.608C374.662 173.903 375.475 174.183 376.048 174.743C376.622 175.303 376.908 176.109 376.908 177.163V183.503C376.908 184.556 376.622 185.363 376.048 185.923C375.475 186.483 374.662 186.763 373.608 186.763ZM381.383 186.763H379.723C379.443 186.763 379.303 186.623 379.303 186.343V174.323C379.303 174.043 379.443 173.903 379.723 173.903H381.223C381.503 173.903 381.69 173.996 381.783 174.183L385.823 181.763H385.903V174.323C385.903 174.043 386.043 173.903 386.323 173.903H387.983C388.263 173.903 388.403 174.043 388.403 174.323V186.343C388.403 186.623 388.263 186.763 387.983 186.763H386.523C386.23 186.763 386.017 186.629 385.883 186.363L381.883 178.923H381.803V186.343C381.803 186.623 381.663 186.763 381.383 186.763ZM403.937 173.903H406.897C407.177 173.903 407.317 174.043 407.317 174.323V186.343C407.317 186.623 407.177 186.763 406.897 186.763H405.257C404.977 186.763 404.837 186.623 404.837 186.343V176.863H404.757L402.717 183.563C402.637 183.829 402.471 183.963 402.217 183.963H400.537C400.284 183.963 400.117 183.829 400.037 183.563L397.957 176.843H397.877V186.343C397.877 186.503 397.851 186.616 397.797 186.683C397.744 186.736 397.631 186.763 397.457 186.763H395.817C395.537 186.763 395.397 186.623 395.397 186.343V174.323C395.397 174.043 395.537 173.903 395.817 173.903H398.797C398.984 173.903 399.111 173.996 399.177 174.183L401.297 181.243H401.417L403.557 174.183C403.597 173.996 403.724 173.903 403.937 173.903ZM413.409 184.563H414.829C415.256 184.563 415.556 184.476 415.729 184.303C415.916 184.116 416.009 183.809 416.009 183.383V177.283C416.009 176.856 415.916 176.556 415.729 176.383C415.556 176.196 415.256 176.103 414.829 176.103H413.409C412.982 176.103 412.682 176.196 412.509 176.383C412.336 176.556 412.249 176.856 412.249 177.283V183.383C412.249 183.809 412.336 184.116 412.509 184.303C412.682 184.476 412.982 184.563 413.409 184.563ZM415.249 186.763H413.009C411.956 186.763 411.142 186.483 410.569 185.923C409.996 185.363 409.709 184.556 409.709 183.503V177.163C409.709 176.109 409.996 175.303 410.569 174.743C411.142 174.183 411.956 173.903 413.009 173.903H415.249C416.302 173.903 417.116 174.183 417.689 174.743C418.262 175.303 418.549 176.109 418.549 177.163V183.503C418.549 184.556 418.262 185.363 417.689 185.923C417.116 186.483 416.302 186.763 415.249 186.763ZM423.704 184.563H425.884C426.311 184.563 426.611 184.476 426.784 184.303C426.971 184.116 427.064 183.809 427.064 183.383V177.283C427.064 176.856 426.971 176.556 426.784 176.383C426.611 176.196 426.311 176.103 425.884 176.103H423.704C423.557 176.103 423.484 176.176 423.484 176.323V184.343C423.484 184.489 423.557 184.563 423.704 184.563ZM420.944 186.343V174.323C420.944 174.043 421.084 173.903 421.364 173.903H426.304C427.344 173.903 428.151 174.189 428.724 174.763C429.311 175.323 429.604 176.123 429.604 177.163V183.503C429.604 184.543 429.311 185.349 428.724 185.923C428.151 186.483 427.344 186.763 426.304 186.763H421.364C421.084 186.763 420.944 186.623 420.944 186.343ZM438.959 186.763H432.419C432.139 186.763 431.999 186.623 431.999 186.343V174.323C431.999 174.043 432.139 173.903 432.419 173.903H438.959C439.225 173.903 439.359 174.043 439.359 174.323V175.683C439.359 175.963 439.225 176.103 438.959 176.103H434.779C434.619 176.103 434.539 176.176 434.539 176.323V178.923C434.539 179.069 434.619 179.143 434.779 179.143H438.199C438.479 179.143 438.619 179.283 438.619 179.563V180.923C438.619 181.203 438.479 181.343 438.199 181.343H434.779C434.619 181.343 434.539 181.416 434.539 181.563V184.343C434.539 184.489 434.619 184.563 434.779 184.563H438.959C439.225 184.563 439.359 184.703 439.359 184.983V186.343C439.359 186.623 439.225 186.763 438.959 186.763ZM448.569 186.763H441.989C441.709 186.763 441.569 186.623 441.569 186.343V174.323C441.569 174.043 441.709 173.903 441.989 173.903H443.689C443.969 173.903 444.109 174.043 444.109 174.323V184.323C444.109 184.469 444.189 184.543 444.349 184.543H448.569C448.836 184.543 448.969 184.689 448.969 184.983V186.343C448.969 186.623 448.836 186.763 448.569 186.763ZM457.068 186.763H455.368C455.088 186.763 454.948 186.623 454.948 186.343V174.323C454.948 174.043 455.088 173.903 455.368 173.903H460.128C461.168 173.903 461.981 174.189 462.568 174.763C463.155 175.336 463.448 176.143 463.448 177.183V178.743C463.448 180.249 462.855 181.249 461.668 181.743V181.823L463.808 186.283C463.928 186.603 463.815 186.763 463.468 186.763H461.848C461.608 186.763 461.435 186.736 461.328 186.683C461.221 186.629 461.135 186.516 461.068 186.343L459.068 182.023H457.728C457.568 182.023 457.488 182.096 457.488 182.243V186.343C457.488 186.623 457.348 186.763 457.068 186.763ZM457.708 179.983H459.668C460.095 179.983 460.408 179.896 460.608 179.723C460.808 179.536 460.908 179.243 460.908 178.843V177.283C460.908 176.869 460.808 176.569 460.608 176.383C460.408 176.196 460.095 176.103 459.668 176.103H457.708C457.561 176.103 457.488 176.176 457.488 176.323V179.763C457.488 179.909 457.561 179.983 457.708 179.983ZM472.846 186.763H466.306C466.026 186.763 465.886 186.623 465.886 186.343V174.323C465.886 174.043 466.026 173.903 466.306 173.903H472.846C473.112 173.903 473.246 174.043 473.246 174.323V175.683C473.246 175.963 473.112 176.103 472.846 176.103H468.666C468.506 176.103 468.426 176.176 468.426 176.323V178.923C468.426 179.069 468.506 179.143 468.666 179.143H472.086C472.366 179.143 472.506 179.283 472.506 179.563V180.923C472.506 181.203 472.366 181.343 472.086 181.343H468.666C468.506 181.343 468.426 181.416 468.426 181.563V184.343C468.426 184.489 468.506 184.563 468.666 184.563H472.846C473.112 184.563 473.246 184.703 473.246 184.983V186.343C473.246 186.623 473.112 186.763 472.846 186.763ZM475.136 183.483V183.083C475.136 182.803 475.276 182.663 475.556 182.663H477.256C477.536 182.663 477.676 182.803 477.676 183.083V183.243C477.676 183.749 477.776 184.096 477.976 184.283C478.176 184.469 478.542 184.563 479.076 184.563H480.016C480.536 184.563 480.896 184.463 481.096 184.263C481.309 184.063 481.416 183.689 481.416 183.143V182.903C481.416 182.516 481.256 182.223 480.936 182.023C480.629 181.809 480.242 181.683 479.776 181.643C479.309 181.603 478.802 181.529 478.256 181.423C477.722 181.303 477.222 181.156 476.756 180.983C476.289 180.796 475.896 180.443 475.576 179.923C475.269 179.389 475.116 178.709 475.116 177.883V177.183C475.116 176.143 475.409 175.336 475.996 174.763C476.582 174.189 477.396 173.903 478.436 173.903H480.436C481.489 173.903 482.309 174.189 482.896 174.763C483.482 175.336 483.776 176.143 483.776 177.183V177.563C483.776 177.843 483.636 177.983 483.356 177.983H481.656C481.376 177.983 481.236 177.843 481.236 177.563V177.443C481.236 176.923 481.136 176.569 480.936 176.383C480.736 176.196 480.369 176.103 479.836 176.103H479.056C478.509 176.103 478.136 176.209 477.936 176.423C477.749 176.623 477.656 177.023 477.656 177.623V178.003C477.656 178.629 478.202 178.989 479.296 179.083C480.429 179.176 481.436 179.403 482.316 179.763C482.782 179.963 483.169 180.323 483.476 180.843C483.796 181.349 483.956 182.003 483.956 182.803V183.483C483.956 184.523 483.662 185.329 483.076 185.903C482.489 186.476 481.676 186.763 480.636 186.763H478.456C477.416 186.763 476.602 186.476 476.016 185.903C475.429 185.329 475.136 184.523 475.136 183.483ZM493.197 186.763H486.657C486.377 186.763 486.237 186.623 486.237 186.343V174.323C486.237 174.043 486.377 173.903 486.657 173.903H493.197C493.464 173.903 493.597 174.043 493.597 174.323V175.683C493.597 175.963 493.464 176.103 493.197 176.103H489.017C488.857 176.103 488.777 176.176 488.777 176.323V178.923C488.777 179.069 488.857 179.143 489.017 179.143H492.437C492.717 179.143 492.857 179.283 492.857 179.563V180.923C492.857 181.203 492.717 181.343 492.437 181.343H489.017C488.857 181.343 488.777 181.416 488.777 181.563V184.343C488.777 184.489 488.857 184.563 489.017 184.563H493.197C493.464 184.563 493.597 184.703 493.597 184.983V186.343C493.597 186.623 493.464 186.763 493.197 186.763ZM497.147 186.763H495.227C494.987 186.763 494.907 186.623 494.987 186.343L498.147 174.323C498.241 174.043 498.441 173.903 498.747 173.903H501.407C501.741 173.903 501.941 174.043 502.007 174.323L505.167 186.343C505.247 186.623 505.167 186.763 504.927 186.763H503.007C502.861 186.763 502.761 186.736 502.707 186.683C502.654 186.616 502.614 186.503 502.587 186.343L502.027 184.143H498.127L497.567 186.343C497.541 186.503 497.494 186.616 497.427 186.683C497.374 186.736 497.281 186.763 497.147 186.763ZM500.047 176.323L498.607 182.103H501.567L500.127 176.323H500.047ZM509.06 186.763H507.36C507.08 186.763 506.94 186.623 506.94 186.343V174.323C506.94 174.043 507.08 173.903 507.36 173.903H512.12C513.16 173.903 513.974 174.189 514.56 174.763C515.147 175.336 515.44 176.143 515.44 177.183V178.743C515.44 180.249 514.847 181.249 513.66 181.743V181.823L515.8 186.283C515.92 186.603 515.807 186.763 515.46 186.763H513.84C513.6 186.763 513.427 186.736 513.32 186.683C513.214 186.629 513.127 186.516 513.06 186.343L511.06 182.023H509.72C509.56 182.023 509.48 182.096 509.48 182.243V186.343C509.48 186.623 509.34 186.763 509.06 186.763ZM509.7 179.983H511.66C512.087 179.983 512.4 179.896 512.6 179.723C512.8 179.536 512.9 179.243 512.9 178.843V177.283C512.9 176.869 512.8 176.569 512.6 176.383C512.4 176.196 512.087 176.103 511.66 176.103H509.7C509.554 176.103 509.48 176.176 509.48 176.323V179.763C509.48 179.909 509.554 179.983 509.7 179.983ZM523.158 186.763H520.978C519.924 186.763 519.111 186.483 518.538 185.923C517.964 185.363 517.678 184.556 517.678 183.503V177.163C517.678 176.109 517.964 175.303 518.538 174.743C519.111 174.183 519.924 173.903 520.978 173.903H523.158C524.198 173.903 525.004 174.189 525.578 174.763C526.164 175.323 526.458 176.123 526.458 177.163V178.103C526.458 178.396 526.311 178.543 526.018 178.543H524.338C524.058 178.543 523.918 178.396 523.918 178.103V177.283C523.918 176.856 523.824 176.556 523.638 176.383C523.464 176.196 523.164 176.103 522.738 176.103H521.378C520.964 176.103 520.664 176.196 520.478 176.383C520.304 176.556 520.218 176.856 520.218 177.283V183.383C520.218 183.809 520.304 184.116 520.478 184.303C520.664 184.476 520.964 184.563 521.378 184.563H522.738C523.164 184.563 523.464 184.476 523.638 184.303C523.824 184.116 523.918 183.809 523.918 183.383V182.563C523.918 182.269 524.058 182.123 524.338 182.123H526.018C526.311 182.123 526.458 182.269 526.458 182.563V183.503C526.458 184.543 526.164 185.349 525.578 185.923C525.004 186.483 524.198 186.763 523.158 186.763ZM530.759 186.763H529.059C528.779 186.763 528.639 186.623 528.639 186.343V174.323C528.639 174.043 528.779 173.903 529.059 173.903H530.759C531.039 173.903 531.179 174.043 531.179 174.323V179.023C531.179 179.169 531.259 179.243 531.419 179.243H534.799C534.946 179.243 535.019 179.169 535.019 179.023V174.323C535.019 174.043 535.159 173.903 535.439 173.903H537.139C537.419 173.903 537.559 174.043 537.559 174.323V186.343C537.559 186.623 537.419 186.763 537.139 186.763H535.439C535.159 186.763 535.019 186.623 535.019 186.343V181.663C535.019 181.516 534.946 181.443 534.799 181.443H531.419C531.259 181.443 531.179 181.516 531.179 181.663V186.343C531.179 186.623 531.039 186.763 530.759 186.763Z" fill="black"/>
<path d="M193.237 214.763H190.921C189.801 214.763 188.937 214.465 188.328 213.87C187.719 213.275 187.414 212.418 187.414 211.299V204.563C187.414 203.444 187.719 202.586 188.328 201.991C188.937 201.396 189.801 201.099 190.921 201.099H193.237C194.342 201.099 195.199 201.404 195.808 202.013C196.431 202.608 196.743 203.458 196.743 204.563V205.561C196.743 205.873 196.587 206.029 196.276 206.029H194.491C194.193 206.029 194.044 205.873 194.044 205.561V204.69C194.044 204.237 193.945 203.918 193.747 203.734C193.563 203.536 193.244 203.436 192.791 203.436H191.346C190.906 203.436 190.588 203.536 190.389 203.734C190.205 203.918 190.113 204.237 190.113 204.69V211.171C190.113 211.625 190.205 211.951 190.389 212.149C190.588 212.333 190.906 212.425 191.346 212.425H192.791C193.244 212.425 193.563 212.333 193.747 212.149C193.945 211.951 194.044 211.625 194.044 211.171V210.3C194.044 209.989 194.193 209.833 194.491 209.833H196.276C196.587 209.833 196.743 209.989 196.743 210.3V211.299C196.743 212.404 196.431 213.261 195.808 213.87C195.199 214.465 194.342 214.763 193.237 214.763ZM202.78 212.425H204.289C204.742 212.425 205.061 212.333 205.245 212.149C205.443 211.951 205.542 211.625 205.542 211.171V204.69C205.542 204.237 205.443 203.918 205.245 203.734C205.061 203.536 204.742 203.436 204.289 203.436H202.78C202.327 203.436 202.008 203.536 201.824 203.734C201.64 203.918 201.547 204.237 201.547 204.69V211.171C201.547 211.625 201.64 211.951 201.824 212.149C202.008 212.333 202.327 212.425 202.78 212.425ZM204.735 214.763H202.355C201.236 214.763 200.372 214.465 199.762 213.87C199.153 213.275 198.849 212.418 198.849 211.299V204.563C198.849 203.444 199.153 202.586 199.762 201.991C200.372 201.396 201.236 201.099 202.355 201.099H204.735C205.854 201.099 206.718 201.396 207.327 201.991C207.937 202.586 208.241 203.444 208.241 204.563V211.299C208.241 212.418 207.937 213.275 207.327 213.87C206.718 214.465 205.854 214.763 204.735 214.763ZM219.86 201.099H223.005C223.302 201.099 223.451 201.248 223.451 201.545V214.316C223.451 214.614 223.302 214.763 223.005 214.763H221.262C220.965 214.763 220.816 214.614 220.816 214.316V204.244H220.731L218.563 211.363C218.478 211.646 218.301 211.788 218.032 211.788H216.247C215.978 211.788 215.801 211.646 215.716 211.363L213.506 204.223H213.421V214.316C213.421 214.486 213.393 214.607 213.336 214.678C213.279 214.734 213.159 214.763 212.975 214.763H211.232C210.935 214.763 210.786 214.614 210.786 214.316V201.545C210.786 201.248 210.935 201.099 211.232 201.099H214.399C214.597 201.099 214.731 201.198 214.802 201.396L217.055 208.898H217.182L219.456 201.396C219.498 201.198 219.633 201.099 219.86 201.099ZM235.278 201.099H238.423C238.721 201.099 238.87 201.248 238.87 201.545V214.316C238.87 214.614 238.721 214.763 238.423 214.763H236.681C236.383 214.763 236.235 214.614 236.235 214.316V204.244H236.15L233.982 211.363C233.897 211.646 233.72 211.788 233.451 211.788H231.666C231.397 211.788 231.22 211.646 231.135 211.363L228.925 204.223H228.84V214.316C228.84 214.486 228.811 214.607 228.755 214.678C228.698 214.734 228.578 214.763 228.393 214.763H226.651C226.353 214.763 226.205 214.614 226.205 214.316V201.545C226.205 201.248 226.353 201.099 226.651 201.099H229.817C230.015 201.099 230.15 201.198 230.221 201.396L232.473 208.898H232.601L234.875 201.396C234.917 201.198 235.052 201.099 235.278 201.099ZM248.615 201.099H250.4C250.711 201.099 250.867 201.241 250.867 201.524V211.299C250.867 212.404 250.555 213.261 249.932 213.87C249.323 214.465 248.466 214.763 247.361 214.763H245.023C243.904 214.763 243.04 214.465 242.431 213.87C241.822 213.275 241.517 212.418 241.517 211.299V201.545C241.517 201.248 241.666 201.099 241.963 201.099H243.77C244.067 201.099 244.216 201.248 244.216 201.545V211.171C244.216 211.625 244.308 211.951 244.492 212.149C244.69 212.333 245.009 212.425 245.448 212.425H246.915C247.368 212.425 247.687 212.333 247.871 212.149C248.069 211.951 248.168 211.625 248.168 211.171V201.545C248.168 201.248 248.317 201.099 248.615 201.099ZM255.724 214.763H253.96C253.663 214.763 253.514 214.614 253.514 214.316V201.545C253.514 201.248 253.663 201.099 253.96 201.099H255.554C255.852 201.099 256.05 201.198 256.149 201.396L260.442 209.45H260.527V201.545C260.527 201.248 260.675 201.099 260.973 201.099H262.737C263.034 201.099 263.183 201.248 263.183 201.545V214.316C263.183 214.614 263.034 214.763 262.737 214.763H261.185C260.874 214.763 260.647 214.621 260.505 214.338L256.255 206.433H256.17V214.316C256.17 214.614 256.022 214.763 255.724 214.763ZM268.75 201.545V214.316C268.75 214.614 268.601 214.763 268.303 214.763H266.497C266.2 214.763 266.051 214.614 266.051 214.316V201.545C266.051 201.248 266.2 201.099 266.497 201.099H268.303C268.601 201.099 268.75 201.248 268.75 201.545ZM275.839 214.763H274.054C273.742 214.763 273.586 214.614 273.586 214.316V203.67C273.586 203.514 273.508 203.436 273.352 203.436H270.93C270.632 203.436 270.484 203.288 270.484 202.99V201.545C270.484 201.248 270.632 201.099 270.93 201.099H278.962C279.26 201.099 279.409 201.248 279.409 201.545V202.99C279.409 203.288 279.26 203.436 278.962 203.436H276.54C276.37 203.436 276.285 203.514 276.285 203.67V214.316C276.285 214.614 276.136 214.763 275.839 214.763ZM286.046 214.763H284.24C283.942 214.763 283.794 214.614 283.794 214.316V209.769L279.905 201.566C279.848 201.439 279.848 201.333 279.905 201.248C279.976 201.149 280.075 201.099 280.202 201.099H282.455C282.682 201.099 282.852 201.248 282.965 201.545L285.09 206.709H285.239L287.321 201.545C287.42 201.248 287.59 201.099 287.831 201.099H290.084C290.225 201.099 290.324 201.141 290.381 201.226C290.452 201.311 290.452 201.425 290.381 201.566L286.492 209.769V214.316C286.492 214.614 286.344 214.763 286.046 214.763ZM295.961 209.068H291.924C291.626 209.068 291.478 208.919 291.478 208.621V207.368C291.478 207.056 291.626 206.9 291.924 206.9H295.961C296.259 206.9 296.408 207.056 296.408 207.368V208.621C296.408 208.919 296.259 209.068 295.961 209.068ZM300.881 214.763H299.075C298.778 214.763 298.629 214.614 298.629 214.316V201.545C298.629 201.248 298.778 201.099 299.075 201.099H305.854C306.137 201.099 306.279 201.248 306.279 201.545V202.99C306.279 203.288 306.137 203.436 305.854 203.436H301.582C301.412 203.436 301.328 203.514 301.328 203.67V206.964C301.328 207.134 301.412 207.219 301.582 207.219H305.216C305.514 207.219 305.662 207.368 305.662 207.665V209.089C305.662 209.401 305.514 209.556 305.216 209.556H301.582C301.412 209.556 301.328 209.634 301.328 209.79V214.316C301.328 214.614 301.179 214.763 300.881 214.763ZM311 201.545V214.316C311 214.614 310.852 214.763 310.554 214.763H308.748C308.45 214.763 308.302 214.614 308.302 214.316V201.545C308.302 201.248 308.45 201.099 308.748 201.099H310.554C310.852 201.099 311 201.248 311 201.545ZM316.113 214.763H314.307C314.009 214.763 313.861 214.614 313.861 214.316V201.545C313.861 201.248 314.009 201.099 314.307 201.099H319.364C320.469 201.099 321.334 201.404 321.957 202.013C322.58 202.622 322.892 203.479 322.892 204.584V206.241C322.892 207.842 322.261 208.905 321.001 209.429V209.514L323.274 214.253C323.402 214.593 323.281 214.763 322.913 214.763H321.192C320.937 214.763 320.753 214.734 320.639 214.678C320.526 214.621 320.434 214.501 320.363 214.316L318.238 209.726H316.814C316.644 209.726 316.559 209.804 316.559 209.96V214.316C316.559 214.614 316.411 214.763 316.113 214.763ZM316.793 207.559H318.876C319.329 207.559 319.662 207.467 319.874 207.283C320.087 207.084 320.193 206.773 320.193 206.348V204.69C320.193 204.251 320.087 203.932 319.874 203.734C319.662 203.536 319.329 203.436 318.876 203.436H316.793C316.637 203.436 316.559 203.514 316.559 203.67V207.325C316.559 207.481 316.637 207.559 316.793 207.559ZM325.142 211.278V210.853C325.142 210.555 325.29 210.406 325.588 210.406H327.394C327.692 210.406 327.84 210.555 327.84 210.853V211.023C327.84 211.561 327.947 211.929 328.159 212.128C328.372 212.326 328.761 212.425 329.328 212.425H330.327C330.879 212.425 331.262 212.319 331.474 212.106C331.701 211.894 331.814 211.497 331.814 210.916V210.661C331.814 210.251 331.644 209.939 331.304 209.726C330.978 209.5 330.568 209.365 330.072 209.323C329.576 209.28 329.038 209.202 328.457 209.089C327.89 208.961 327.359 208.806 326.863 208.621C326.367 208.423 325.949 208.048 325.609 207.495C325.283 206.929 325.12 206.206 325.12 205.328V204.584C325.12 203.479 325.432 202.622 326.055 202.013C326.679 201.404 327.543 201.099 328.648 201.099H330.773C331.892 201.099 332.763 201.404 333.387 202.013C334.01 202.622 334.322 203.479 334.322 204.584V204.988C334.322 205.285 334.173 205.434 333.875 205.434H332.069C331.772 205.434 331.623 205.285 331.623 204.988V204.86C331.623 204.308 331.517 203.932 331.304 203.734C331.092 203.536 330.702 203.436 330.135 203.436H329.307C328.726 203.436 328.329 203.55 328.117 203.776C327.918 203.989 327.819 204.414 327.819 205.051V205.455C327.819 206.121 328.4 206.504 329.562 206.603C330.766 206.702 331.835 206.943 332.77 207.325C333.266 207.538 333.677 207.92 334.003 208.473C334.343 209.011 334.513 209.705 334.513 210.555V211.278C334.513 212.383 334.201 213.24 333.578 213.849C332.955 214.458 332.09 214.763 330.985 214.763H328.669C327.564 214.763 326.7 214.458 326.077 213.849C325.453 213.24 325.142 212.383 325.142 211.278ZM341.165 214.763H339.38C339.069 214.763 338.913 214.614 338.913 214.316V203.67C338.913 203.514 338.835 203.436 338.679 203.436H336.257C335.959 203.436 335.81 203.288 335.81 202.99V201.545C335.81 201.248 335.959 201.099 336.257 201.099H344.289C344.587 201.099 344.735 201.248 344.735 201.545V202.99C344.735 203.288 344.587 203.436 344.289 203.436H341.867C341.697 203.436 341.612 203.514 341.612 203.67V214.316C341.612 214.614 341.463 214.763 341.165 214.763ZM354.364 212.404H355.256C355.851 212.404 356.191 212.121 356.276 211.554L353.96 208.834C353.62 208.848 353.379 208.961 353.237 209.174C353.11 209.386 353.046 209.748 353.046 210.258V211.171C353.046 211.611 353.145 211.929 353.344 212.128C353.556 212.312 353.896 212.404 354.364 212.404ZM355.256 214.763H353.96C352.841 214.763 351.976 214.465 351.367 213.87C350.758 213.275 350.454 212.425 350.454 211.32V210.088C350.454 209.379 350.638 208.756 351.006 208.218C351.389 207.665 351.92 207.346 352.6 207.261C352.047 206.539 351.771 205.71 351.771 204.775V204.541C351.771 203.451 352.097 202.608 352.749 202.013C353.414 201.404 354.314 201.099 355.447 201.099H356.149C357.268 201.099 358.132 201.396 358.741 201.991C359.35 202.586 359.655 203.436 359.655 204.541V205.264C359.655 205.576 359.506 205.731 359.208 205.731H357.402C357.105 205.731 356.956 205.576 356.956 205.264V204.584C356.956 204.145 356.871 203.833 356.701 203.649C356.531 203.451 356.262 203.351 355.894 203.351H355.724C355.313 203.351 355.015 203.451 354.831 203.649C354.647 203.833 354.555 204.145 354.555 204.584V204.86C354.555 205.413 354.866 206.043 355.49 206.751L356.489 207.899H361.206C361.503 207.899 361.652 208.055 361.652 208.366V209.811C361.652 210.109 361.503 210.258 361.206 210.258H358.443L361.907 214.38C361.978 214.465 361.999 214.55 361.971 214.635C361.943 214.72 361.879 214.763 361.78 214.763H359.506C359.166 214.763 358.918 214.664 358.762 214.465L357.827 213.36C357.671 213.856 357.388 214.217 356.977 214.444C356.581 214.656 356.007 214.763 355.256 214.763ZM376.227 214.763H369.279C368.981 214.763 368.832 214.614 368.832 214.316V201.545C368.832 201.248 368.981 201.099 369.279 201.099H376.227C376.511 201.099 376.652 201.248 376.652 201.545V202.99C376.652 203.288 376.511 203.436 376.227 203.436H371.786C371.616 203.436 371.531 203.514 371.531 203.67V206.433C371.531 206.589 371.616 206.666 371.786 206.666H375.42C375.717 206.666 375.866 206.815 375.866 207.113V208.558C375.866 208.855 375.717 209.004 375.42 209.004H371.786C371.616 209.004 371.531 209.082 371.531 209.238V212.191C371.531 212.347 371.616 212.425 371.786 212.425H376.227C376.511 212.425 376.652 212.574 376.652 212.871V214.316C376.652 214.614 376.511 214.763 376.227 214.763ZM381.211 214.763H379.447C379.15 214.763 379.001 214.614 379.001 214.316V201.545C379.001 201.248 379.15 201.099 379.447 201.099H381.041C381.338 201.099 381.537 201.198 381.636 201.396L385.928 209.45H386.013V201.545C386.013 201.248 386.162 201.099 386.46 201.099H388.223C388.521 201.099 388.67 201.248 388.67 201.545V214.316C388.67 214.614 388.521 214.763 388.223 214.763H386.672C386.36 214.763 386.134 214.621 385.992 214.338L381.742 206.433H381.657V214.316C381.657 214.614 381.508 214.763 381.211 214.763ZM395.66 214.763H393.875C393.563 214.763 393.407 214.614 393.407 214.316V203.67C393.407 203.514 393.33 203.436 393.174 203.436H390.751C390.454 203.436 390.305 203.288 390.305 202.99V201.545C390.305 201.248 390.454 201.099 390.751 201.099H398.784C399.081 201.099 399.23 201.248 399.23 201.545V202.99C399.23 203.288 399.081 203.436 398.784 203.436H396.361C396.191 203.436 396.106 203.514 396.106 203.67V214.316C396.106 214.614 395.957 214.763 395.66 214.763ZM408.248 214.763H401.299C401.001 214.763 400.853 214.614 400.853 214.316V201.545C400.853 201.248 401.001 201.099 401.299 201.099H408.248C408.531 201.099 408.673 201.248 408.673 201.545V202.99C408.673 203.288 408.531 203.436 408.248 203.436H403.806C403.636 203.436 403.551 203.514 403.551 203.67V206.433C403.551 206.589 403.636 206.666 403.806 206.666H407.44C407.738 206.666 407.886 206.815 407.886 207.113V208.558C407.886 208.855 407.738 209.004 407.44 209.004H403.806C403.636 209.004 403.551 209.082 403.551 209.238V212.191C403.551 212.347 403.636 212.425 403.806 212.425H408.248C408.531 212.425 408.673 212.574 408.673 212.871V214.316C408.673 214.614 408.531 214.763 408.248 214.763ZM413.273 214.763H411.467C411.17 214.763 411.021 214.614 411.021 214.316V201.545C411.021 201.248 411.17 201.099 411.467 201.099H416.525C417.63 201.099 418.494 201.404 419.117 202.013C419.741 202.622 420.052 203.479 420.052 204.584V206.241C420.052 207.842 419.422 208.905 418.161 209.429V209.514L420.435 214.253C420.562 214.593 420.442 214.763 420.073 214.763H418.352C418.097 214.763 417.913 214.734 417.8 214.678C417.686 214.621 417.594 214.501 417.523 214.316L415.398 209.726H413.975C413.805 209.726 413.72 209.804 413.72 209.96V214.316C413.72 214.614 413.571 214.763 413.273 214.763ZM413.953 207.559H416.036C416.489 207.559 416.822 207.467 417.035 207.283C417.247 207.084 417.353 206.773 417.353 206.348V204.69C417.353 204.251 417.247 203.932 417.035 203.734C416.822 203.536 416.489 203.436 416.036 203.436H413.953C413.798 203.436 413.72 203.514 413.72 203.67V207.325C413.72 207.481 413.798 207.559 413.953 207.559ZM424.895 214.763H423.088C422.791 214.763 422.642 214.614 422.642 214.316V201.545C422.642 201.248 422.791 201.099 423.088 201.099H428.273C429.378 201.099 430.235 201.404 430.845 202.013C431.454 202.608 431.758 203.458 431.758 204.563V206.603C431.758 207.708 431.454 208.565 430.845 209.174C430.235 209.769 429.378 210.066 428.273 210.066H425.596C425.426 210.066 425.341 210.144 425.341 210.3V214.316C425.341 214.614 425.192 214.763 424.895 214.763ZM425.575 207.708H427.827C428.28 207.708 428.599 207.616 428.783 207.431C428.967 207.233 429.06 206.914 429.06 206.475V204.69C429.06 204.237 428.967 203.918 428.783 203.734C428.599 203.536 428.28 203.436 427.827 203.436H425.575C425.419 203.436 425.341 203.514 425.341 203.67V207.474C425.341 207.63 425.419 207.708 425.575 207.708ZM436.163 214.763H434.357C434.059 214.763 433.91 214.614 433.91 214.316V201.545C433.91 201.248 434.059 201.099 434.357 201.099H439.414C440.519 201.099 441.383 201.404 442.007 202.013C442.63 202.622 442.942 203.479 442.942 204.584V206.241C442.942 207.842 442.311 208.905 441.05 209.429V209.514L443.324 214.253C443.452 214.593 443.331 214.763 442.963 214.763H441.242C440.987 214.763 440.802 214.734 440.689 214.678C440.576 214.621 440.484 214.501 440.413 214.316L438.288 209.726H436.864C436.694 209.726 436.609 209.804 436.609 209.96V214.316C436.609 214.614 436.46 214.763 436.163 214.763ZM436.843 207.559H438.925C439.379 207.559 439.712 207.467 439.924 207.283C440.137 207.084 440.243 206.773 440.243 206.348V204.69C440.243 204.251 440.137 203.932 439.924 203.734C439.712 203.536 439.379 203.436 438.925 203.436H436.843C436.687 203.436 436.609 203.514 436.609 203.67V207.325C436.609 207.481 436.687 207.559 436.843 207.559ZM448.336 201.545V214.316C448.336 214.614 448.188 214.763 447.89 214.763H446.084C445.786 214.763 445.638 214.614 445.638 214.316V201.545C445.638 201.248 445.786 201.099 446.084 201.099H447.89C448.188 201.099 448.336 201.248 448.336 201.545ZM450.857 211.278V210.853C450.857 210.555 451.005 210.406 451.303 210.406H453.109C453.407 210.406 453.555 210.555 453.555 210.853V211.023C453.555 211.561 453.662 211.929 453.874 212.128C454.087 212.326 454.476 212.425 455.043 212.425H456.042C456.594 212.425 456.977 212.319 457.189 212.106C457.416 211.894 457.529 211.497 457.529 210.916V210.661C457.529 210.251 457.359 209.939 457.019 209.726C456.693 209.5 456.282 209.365 455.787 209.323C455.291 209.28 454.752 209.202 454.172 209.089C453.605 208.961 453.074 208.806 452.578 208.621C452.082 208.423 451.664 208.048 451.324 207.495C450.998 206.929 450.835 206.206 450.835 205.328V204.584C450.835 203.479 451.147 202.622 451.77 202.013C452.394 201.404 453.258 201.099 454.363 201.099H456.488C457.607 201.099 458.478 201.404 459.102 202.013C459.725 202.622 460.037 203.479 460.037 204.584V204.988C460.037 205.285 459.888 205.434 459.59 205.434H457.784C457.487 205.434 457.338 205.285 457.338 204.988V204.86C457.338 204.308 457.232 203.932 457.019 203.734C456.807 203.536 456.417 203.436 455.85 203.436H455.022C454.441 203.436 454.044 203.55 453.832 203.776C453.633 203.989 453.534 204.414 453.534 205.051V205.455C453.534 206.121 454.115 206.504 455.277 206.603C456.481 206.702 457.55 206.943 458.485 207.325C458.981 207.538 459.392 207.92 459.718 208.473C460.058 209.011 460.228 209.705 460.228 210.555V211.278C460.228 212.383 459.916 213.24 459.293 213.849C458.67 214.458 457.805 214.763 456.7 214.763H454.384C453.279 214.763 452.415 214.458 451.792 213.849C451.168 213.24 450.857 212.383 450.857 211.278ZM470.047 214.763H463.098C462.8 214.763 462.652 214.614 462.652 214.316V201.545C462.652 201.248 462.8 201.099 463.098 201.099H470.047C470.33 201.099 470.472 201.248 470.472 201.545V202.99C470.472 203.288 470.33 203.436 470.047 203.436H465.605C465.435 203.436 465.35 203.514 465.35 203.67V206.433C465.35 206.589 465.435 206.666 465.605 206.666H469.239C469.537 206.666 469.685 206.815 469.685 207.113V208.558C469.685 208.855 469.537 209.004 469.239 209.004H465.605C465.435 209.004 465.35 209.082 465.35 209.238V212.191C465.35 212.347 465.435 212.425 465.605 212.425H470.047C470.33 212.425 470.472 212.574 470.472 212.871V214.316C470.472 214.614 470.33 214.763 470.047 214.763ZM476.773 209.068H472.735C472.438 209.068 472.289 208.919 472.289 208.621V207.368C472.289 207.056 472.438 206.9 472.735 206.9H476.773C477.07 206.9 477.219 207.056 477.219 207.368V208.621C477.219 208.919 477.07 209.068 476.773 209.068ZM484.986 214.763H482.734C481.615 214.763 480.75 214.465 480.141 213.87C479.532 213.275 479.227 212.418 479.227 211.299V204.563C479.227 203.444 479.532 202.586 480.141 201.991C480.75 201.396 481.615 201.099 482.734 201.099H484.986C486.091 201.099 486.948 201.404 487.557 202.013C488.167 202.608 488.471 203.458 488.471 204.563V205.2C488.471 205.512 488.322 205.668 488.025 205.668H486.219C485.921 205.668 485.772 205.512 485.772 205.2V204.69C485.772 204.237 485.68 203.918 485.496 203.734C485.312 203.536 484.993 203.436 484.54 203.436H483.159C482.72 203.436 482.401 203.536 482.202 203.734C482.018 203.918 481.926 204.237 481.926 204.69V211.171C481.926 211.625 482.018 211.951 482.202 212.149C482.401 212.333 482.72 212.425 483.159 212.425H484.54C484.993 212.425 485.312 212.333 485.496 212.149C485.68 211.951 485.772 211.625 485.772 211.171V209.833C485.772 209.677 485.695 209.599 485.539 209.599H484.264C483.966 209.599 483.817 209.45 483.817 209.153V207.708C483.817 207.41 483.966 207.261 484.264 207.261H487.982C488.308 207.261 488.471 207.424 488.471 207.75V211.299C488.471 212.404 488.167 213.261 487.557 213.87C486.948 214.465 486.091 214.763 484.986 214.763ZM493.272 214.763H491.466C491.168 214.763 491.02 214.614 491.02 214.316V201.545C491.02 201.248 491.168 201.099 491.466 201.099H496.523C497.628 201.099 498.492 201.404 499.116 202.013C499.739 202.622 500.051 203.479 500.051 204.584V206.241C500.051 207.842 499.42 208.905 498.159 209.429V209.514L500.433 214.253C500.561 214.593 500.44 214.763 500.072 214.763H498.351C498.096 214.763 497.912 214.734 497.798 214.678C497.685 214.621 497.593 214.501 497.522 214.316L495.397 209.726H493.973C493.803 209.726 493.718 209.804 493.718 209.96V214.316C493.718 214.614 493.57 214.763 493.272 214.763ZM493.952 207.559H496.035C496.488 207.559 496.821 207.467 497.033 207.283C497.246 207.084 497.352 206.773 497.352 206.348V204.69C497.352 204.251 497.246 203.932 497.033 203.734C496.821 203.536 496.488 203.436 496.035 203.436H493.952C493.796 203.436 493.718 203.514 493.718 203.67V207.325C493.718 207.481 493.796 207.559 493.952 207.559ZM504.064 214.763H502.024C501.769 214.763 501.684 214.614 501.769 214.316L505.127 201.545C505.226 201.248 505.438 201.099 505.764 201.099H508.591C508.945 201.099 509.157 201.248 509.228 201.545L512.586 214.316C512.671 214.614 512.586 214.763 512.331 214.763H510.291C510.135 214.763 510.028 214.734 509.972 214.678C509.915 214.607 509.873 214.486 509.844 214.316L509.249 211.979H505.106L504.511 214.316C504.482 214.486 504.433 214.607 504.362 214.678C504.305 214.734 504.206 214.763 504.064 214.763ZM507.146 203.67L505.616 209.811H508.761L507.231 203.67H507.146ZM517.402 212.425H519.718C520.171 212.425 520.49 212.333 520.674 212.149C520.872 211.951 520.972 211.625 520.972 211.171V204.69C520.972 204.237 520.872 203.918 520.674 203.734C520.49 203.536 520.171 203.436 519.718 203.436H517.402C517.246 203.436 517.168 203.514 517.168 203.67V212.191C517.168 212.347 517.246 212.425 517.402 212.425ZM514.469 214.316V201.545C514.469 201.248 514.618 201.099 514.915 201.099H520.164C521.269 201.099 522.126 201.404 522.735 202.013C523.359 202.608 523.67 203.458 523.67 204.563V211.299C523.67 212.404 523.359 213.261 522.735 213.87C522.126 214.465 521.269 214.763 520.164 214.763H514.915C514.618 214.763 514.469 214.614 514.469 214.316ZM533.61 214.763H526.661C526.363 214.763 526.215 214.614 526.215 214.316V201.545C526.215 201.248 526.363 201.099 526.661 201.099H533.61C533.893 201.099 534.035 201.248 534.035 201.545V202.99C534.035 203.288 533.893 203.436 533.61 203.436H529.168C528.998 203.436 528.913 203.514 528.913 203.67V206.433C528.913 206.589 528.998 206.666 529.168 206.666H532.802C533.1 206.666 533.248 206.815 533.248 207.113V208.558C533.248 208.855 533.1 209.004 532.802 209.004H529.168C528.998 209.004 528.913 209.082 528.913 209.238V212.191C528.913 212.347 528.998 212.425 529.168 212.425H533.61C533.893 212.425 534.035 212.574 534.035 212.871V214.316C534.035 214.614 533.893 214.763 533.61 214.763Z" fill="#034ADA"/>
<line opacity="0.4" x1="815" y1="155.5" x2="186.246" y2="155.5" stroke="url(#paint0_linear_677_7858)"/>
<defs>
<filter id="filter0_d_677_7858" x="20.8" y="25.0373" width="148.646" height="148.646" filterUnits="userSpaceOnUse" color-interpolation-filters="sRGB">
<feFlood flood-opacity="0" result="BackgroundImageFix"/>
<feColorMatrix in="SourceAlpha" type="matrix" values="0 0 0 0 0 0 0 0 0 0 0 0 0 0 0 0 0 0 127 0" result="hardAlpha"/>
<feMorphology radius="12" operator="erode" in="SourceAlpha" result="effect1_dropShadow_677_7858"/>
<feOffset/>
<feGaussianBlur stdDeviation="7.6"/>
<feComposite in2="hardAlpha" operator="out"/>
<feColorMatrix type="matrix" values="0 0 0 0 0.0313726 0 0 0 0 0.360784 0 0 0 0 1 0 0 0 0.34 0"/>
<feBlend mode="normal" in2="BackgroundImageFix" result="effect1_dropShadow_677_7858"/>
<feBlend mode="normal" in="SourceGraphic" in2="effect1_dropShadow_677_7858" result="shape"/>
</filter>
<linearGradient id="paint0_linear_677_7858" x1="186.246" y1="154.5" x2="798.351" y2="154.5" gradientUnits="userSpaceOnUse">
<stop offset="0.692359" stop-opacity="0.8"/>
<stop offset="1" stop-color="white"/>
</linearGradient>
</defs>
</svg>
